<svg id="Hotel_Overlook" data-name="Hotel Overlook" xmlns="http://www.w3.org/2000/svg" viewBox="0 0 506.51 120.84"><defs><style>.cls-1{isolation:isolate;font-size:60px;fill:#fff;font-family:OpenSans-Light, Open Sans;font-weight:300;}.cls-2{fill:red;}.cls-3{fill:none;stroke:#aaa;stroke-miterlimit:10;}</style></defs><text class="cls-1" transform="translate(0 75.29)">HOTEL OVERLOOK</text><polygon class="cls-2" points="255.15 120.84 265.82 114.32 276.49 120.84 273.58 108.68 283.08 100.54 270.62 99.55 265.82 88 261.02 99.55 248.55 100.54 258.05 108.68 255.15 120.84"/><polygon class="cls-2" points="293.84 120.84 304.51 114.32 315.18 120.84 312.27 108.68 321.78 100.54 309.31 99.55 304.51 88 299.71 99.55 287.25 100.54 296.75 108.68 293.84 120.84"/><polygon class="cls-2" points="332.53 120.84 343.21 114.32 353.88 120.84 350.97 108.68 360.47 100.54 348 99.55 343.21 88 338.41 99.55 325.94 100.54 335.44 108.68 332.53 120.84"/><polygon class="cls-2" points="371.23 120.84 381.9 114.32 392.57 120.84 389.66 108.68 399.16 100.54 386.7 99.55 381.9 88 377.1 99.55 364.63 100.54 374.14 108.68 371.23 120.84"/><polygon class="cls-2" points="216.45 120.84 227.12 114.32 237.79 120.84 234.89 108.68 244.39 100.54 231.92 99.55 227.12 88 222.33 99.55 209.86 100.54 219.36 108.68 216.45 120.84"/><line class="cls-3" x1="506.44" y1="0.5" x2="162.94" y2="0.5"/><line class="cls-3" x1="209.94" y1="105.5" x2="162.94" y2="105.5"/><line class="cls-3" x1="505.94" y1="105.5" x2="398.94" y2="105.5"/></svg>